<?xml version="1.0" encoding="UTF-8"?><svg version="1.1" width="159px" height="159px" viewBox="0 0 159.0 159.0" xmlns="http://www.w3.org/2000/svg" xmlns:xlink="http://www.w3.org/1999/xlink"><defs><clipPath id="i0"><path d="M159,0 L159,159 L0,159 L0,0 L159,0 Z"></path></clipPath><clipPath id="i1"><path d="M79,0 C122.630495,0 158,35.5933624 158,79.5 C158,123.406638 122.630495,159 79,159 C35.3695048,159 0,123.406638 0,79.5 C0,35.5933624 35.3695048,0 79,0 Z"></path></clipPath><clipPath id="i2"><path d="M114,0 L114,29 L0,29 L0,0 L114,0 Z"></path></clipPath><clipPath id="i3"><path d="M3.36,0 L3.359,8.232 L12.376,8.232 L12.376,0 L15.736,0 L15.736,19.6 L12.376,19.6 L12.376,10.976 L3.359,10.976 L3.36,19.6 L0,19.6 L0,0 L3.36,0 Z"></path></clipPath><clipPath id="i4"><path d="M3.36,0 L3.36,12.18 C3.36,13.244 3.53733333,14.1213333 3.892,14.812 C4.24666667,15.5026667 4.746,16.0206667 5.39,16.366 C6.034,16.7113333 6.79466667,16.884 7.672,16.884 C8.568,16.884 9.338,16.7113333 9.982,16.366 C10.626,16.0206667 11.1206667,15.5026667 11.466,14.812 C11.8113333,14.1213333 11.984,13.244 11.984,12.18 L11.984,0 L15.344,0 L15.344,12.152 C15.344,13.9066667 14.9986667,15.3626667 14.308,16.52 C13.6173333,17.6773333 12.684,18.536 11.508,19.096 C10.332,19.656 9.03466667,19.936 7.616,19.936 C6.19733333,19.936 4.914,19.656 3.766,19.096 C2.618,18.536 1.70333333,17.6773333 1.022,16.52 C0.340666667,15.3626667 0,13.9066667 0,12.152 L0,0 L3.36,0 Z"></path></clipPath><clipPath id="i5"><path d="M3.976,0 L10.248,12.656 L16.464,0 L20.468,0 L20.468,19.6 L17.108,19.6 L17.108,5.768 L11.564,16.856 L8.932,16.856 L3.36,5.796 L3.36,19.6 L0,19.6 L0,0 L3.976,0 Z"></path></clipPath><clipPath id="i6"><path d="M3.36,0 L12.796,14.168 L12.796,0 L16.156,0 L16.156,19.6 L12.796,19.6 L3.36,5.46 L3.36,19.6 L0,19.6 L0,0 L3.36,0 Z"></path></clipPath><clipPath id="i7"><path d="M11.592,0 L11.592,2.8 L0,2.8 L0,0 L11.592,0 Z"></path></clipPath><clipPath id="i8"><path d="M6.916,0 L6.916,19.6 L3.472,19.6 L3.472,3.836 L0,4.732 L0,2.128 L4.816,0 L6.916,0 Z"></path></clipPath><clipPath id="i9"><path d="M79,0 C122.630495,0 158,35.3695048 158,79 C158,122.630495 122.630495,158 79,158 C35.3695048,158 0,122.630495 0,79 C0,35.3695048 35.3695048,0 79,0 Z M79,15 C43.653776,15 15,43.653776 15,79 C15,114.346224 43.653776,143 79,143 C114.346224,143 143,114.346224 143,79 C143,43.653776 114.346224,15 79,15 Z"></path></clipPath><clipPath id="i10"><path d="M6.93512795,0 L7.11849446,1.33748896 L4.265,1.728 L4.681,4.76 L7.53412522,4.36913061 L7.71749174,5.70661957 L0.782363787,6.65740889 L0.598997275,5.31991993 L3.601,4.908 L3.185,1.876 L0.183366513,2.28827829 L0,0.950789325 L6.93512795,0 Z"></path></clipPath><clipPath id="i11"><path d="M6.19956065,0 L6.57688359,1.29619728 L2.43865374,2.5008357 C2.10580308,2.5977285 1.8415987,2.73365717 1.64604061,2.90862171 C1.45048252,3.08358624 1.32857419,3.29092258 1.28031563,3.53063074 C1.23205707,3.7703389 1.24985256,4.0342149 1.33370211,4.32225874 C1.41941497,4.61670355 1.54695868,4.85210354 1.71633325,5.02845871 C1.88570781,5.20481388 2.09985064,5.31432576 2.35876171,5.35699435 C2.61767279,5.39966294 2.91355366,5.37255084 3.24640432,5.27565803 L7.38463417,4.07101962 L7.76195711,5.36721691 L3.63332872,6.56906033 C3.0188352,6.74793936 2.47775509,6.77352337 2.01008841,6.64581239 C1.54242172,6.5181014 1.14928111,6.276696 0.830666566,5.92159618 C0.512052022,5.56649636 0.281006808,5.14250894 0.137530926,4.64963392 C-0.00594495623,4.1567589 -0.0371624757,3.6798092 0.0438783677,3.2187848 C0.124919211,2.75776041 0.329398356,2.35106717 0.657315803,1.99870509 C0.98523325,1.646343 1.45643874,1.38072245 2.07093226,1.20184343 L6.19956065,0 Z"></path></clipPath><clipPath id="i12"><path d="M6.33539168,0 L7.02011262,1.45714009 L3.97514407,5.2524881 L8.83185872,5.31267845 L9.51657966,6.76981854 L3.18118798,9.74686611 L2.60704309,8.52504057 L6.86080607,6.52616577 L2.70720678,6.4339004 L2.25214379,5.46549053 L4.82790787,2.19999831 L0.574144889,4.19887311 L0,2.97704757 L6.33539168,0 Z"></path></clipPath><clipPath id="i13"><path d="M7.21779299,0 L8.08513462,1.2604041 L3.7641493,7.32930728 L2.95349666,6.15128253 L3.951,4.796 L2.428,2.583 L0.804983735,3.02910506 L0,1.85931824 L7.21779299,0 Z M6.37998732,1.49909361 L3.5,2.289 L4.61,3.901 L6.37998732,1.49909361 Z"></path></clipPath><clipPath id="i14"><path d="M5.15133161,0 L6.0653968,0.993471095 L4.69119276,6.63340578 L8.24561157,3.36308363 L9.15967676,4.35655473 L4.00834516,9.09615204 L3.09427996,8.10268095 L4.46112496,2.46951712 L0.914065196,5.73306841 L0,4.73959731 L5.15133161,0 Z"></path></clipPath><clipPath id="i15"><path d="M3.80650837,0.00297756438 C4.39535067,0.0285438286 4.98048427,0.23622764 5.56190916,0.626028999 C6.2651564,1.09750302 6.7241035,1.65801946 6.93875046,2.30757829 C7.15339741,2.95713713 7.10263204,3.63743983 6.78645434,4.3484864 L5.56546208,3.52990354 C5.7013702,3.17154915 5.71289383,2.82812605 5.60003297,2.49963423 C5.48717211,2.17114242 5.24523946,1.88253132 4.874235,1.63380093 C4.53091745,1.40363251 4.18129416,1.28762388 3.82536514,1.28577506 C3.46943611,1.28392624 3.1257165,1.38657802 2.79420631,1.59373039 C2.46269612,1.80088276 2.15772626,2.11211069 1.87929671,2.52741418 C1.60457957,2.93718029 1.43343492,3.33612133 1.36586276,3.7242373 C1.29829061,4.11235327 1.33388152,4.46930402 1.47263551,4.79508957 C1.61138949,5.12087511 1.85242526,5.39885209 2.19574281,5.62902052 C2.56674726,5.87775091 2.92052359,5.99654382 3.25707178,5.98539927 C3.59361998,5.97425471 3.89626548,5.84607243 4.1650083,5.60085241 L5.39430663,6.42500386 C4.8789081,6.95433039 4.28186074,7.24030047 3.60316454,7.28291412 C2.92446835,7.32552777 2.23349663,7.11109758 1.53024939,6.63962356 C0.948824499,6.2498222 0.533532925,5.78880326 0.284374666,5.25656673 C0.0352164065,4.72433021 -0.0502146146,4.15738774 0.0280816023,3.55573933 C0.106377819,2.95409091 0.344139001,2.35701688 0.741365148,1.76451723 C1.13859129,1.17201759 1.60154446,0.723911163 2.13022465,0.420197965 C2.65890483,0.116484767 3.21766607,-0.0225886998 3.80650837,0.00297756438 Z"></path></clipPath><clipPath id="i16"><path d="M5.06760915,0.357729261 C5.6900877,0.647611257 6.1722918,1.04131346 6.51422146,1.53883588 C6.85615111,2.03635829 7.04387533,2.5926043 7.07739411,3.20757389 C7.11091288,3.82254349 6.9771025,4.45335452 6.67596295,5.10000699 C6.3748234,5.74665946 5.97812159,6.2550446 5.48585752,6.62516241 C4.99359344,6.99528022 4.44703472,7.20957805 3.84618134,7.26805589 C3.24532795,7.32653373 2.63366199,7.21083165 2.01118344,6.92094965 C1.39474838,6.63388204 0.915566019,6.24158703 0.573636362,5.74406462 C0.231706705,5.2465422 0.0424716172,4.6895926 0.00593109966,4.07321581 C-0.0306094179,3.45683902 0.101690098,2.82532439 0.402829648,2.17867192 C0.703969197,1.53201945 1.10218188,1.02433791 1.59746769,0.655627292 C2.0927535,0.286916674 2.6408231,0.0733224459 3.24167648,0.0148446072 C3.84252986,-0.0436332315 4.45117409,0.0706616531 5.06760915,0.357729261 Z M3.43297583,1.26220364 C3.06731496,1.30518834 2.73063439,1.45175676 2.4229341,1.7019089 C2.11523382,1.95206104 1.85584412,2.30376764 1.644765,2.75702872 C1.43650026,3.20424632 1.33494466,3.62761615 1.3400982,4.02713822 C1.34525174,4.42666029 1.44833808,4.7817008 1.64935724,5.09225974 C1.85037639,5.40281868 2.14125562,5.64675138 2.52199492,5.82405785 C2.90877771,6.0041787 3.28419226,6.07053231 3.64823859,6.02311867 C4.01228491,5.97570504 4.34886181,5.82541128 4.65796928,5.5722374 C4.96707676,5.31906353 5.22576286,4.96886779 5.4340276,4.52165019 C5.64510672,4.06838912 5.74736592,3.64350841 5.74080519,3.24700808 C5.73424445,2.85050775 5.63126179,2.49919258 5.43185718,2.19306258 C5.23245257,1.88693257 4.93935888,1.64380714 4.55257609,1.46368629 C4.17183679,1.28637982 3.7986367,1.21921894 3.43297583,1.26220364 Z"></path></clipPath><clipPath id="i17"><path d="M1.9727864,0 L3.26806461,0.380465948 L4.99632042,5.92216532 L6.35754303,1.28794769 L7.65282125,1.66841364 L5.68003485,8.38467107 L4.38475663,8.00420512 L2.65368257,2.4721004 L1.29527822,7.09672338 L0,6.71625743 L1.9727864,0 Z"></path></clipPath><clipPath id="i18"><path d="M0.153974292,0 L5.5295245,0.767046245 L5.37555021,1.84611618 L3.35600648,1.55794411 L2.52115505,7.40868108 L1.19459201,7.21939158 L2.02944345,1.36865461 L0,1.07906993 L0.153974292,0 Z"></path></clipPath><clipPath id="i19"><path d="M0.112065601,0 L4.71147607,0.0736431092 L4.69402586,1.16350342 L1.44444237,1.11147296 L1.41514522,2.94123843 L4.36476716,2.98846608 L4.34795732,4.03833151 L1.39833538,3.99110386 L1.3672772,5.93085524 L4.61686069,5.98288569 L4.59941047,7.072746 L0,6.99910289 L0.112065601,0 Z"></path></clipPath><clipPath id="i20"><path d="M5.87491435,0 L6.73718357,6.94668927 L5.39746493,7.11298405 L1.60825392,2.72633614 L2.20198787,7.50962789 L0.862269222,7.67592267 L0,0.729233399 L1.33971864,0.562938621 L5.13016147,4.95951037 L4.53519571,0.166294779 L5.87491435,0 Z"></path></clipPath><clipPath id="i21"><path d="M5.23276393,0 L5.52387233,1.05040749 L3.55797207,1.59523422 L5.13636714,7.29056292 L3.8450405,7.6484393 L2.26664543,1.9531106 L0.291108398,2.50060804 L0,1.45020055 L5.23276393,0 Z"></path></clipPath><clipPath id="i22"><path d="M3.92418017,0.0385768475 C4.59853467,0.153668142 5.17555486,0.517586526 5.65524074,1.130332 L4.35959978,1.82474867 C4.106853,1.53663766 3.80895302,1.36538397 3.46589985,1.31098761 C3.12284667,1.25659124 2.75447667,1.334894 2.36078985,1.54589589 C1.99648264,1.74115137 1.73004167,1.9955205 1.56146692,2.30900326 C1.39289218,2.62248603 1.32233703,2.97419973 1.34980146,3.36414436 C1.3772659,3.75408899 1.50909619,4.16940841 1.74529234,4.61010261 C1.9783392,5.04492089 2.25040432,5.38318856 2.56148769,5.62490562 C2.87257106,5.86662268 3.20451661,6.00261057 3.55732435,6.03286928 C3.91013208,6.063128 4.26868956,5.98062961 4.63299677,5.78537413 C5.02668359,5.57437224 5.29753151,5.31764116 5.44554052,5.01518088 C5.59354953,4.7127206 5.62229157,4.38530818 5.53176662,4.03294361 L6.83622146,3.33380302 C7.06197474,4.03726423 7.03450425,4.69869436 6.75380999,5.31809341 C6.47311573,5.93749245 5.9596475,6.44717138 5.21340532,6.84713018 C4.59643343,7.17780479 3.99448525,7.32835024 3.40756075,7.29876654 C2.82063626,7.26918284 2.27985334,7.0787201 1.78521199,6.72737832 C1.29057064,6.37603654 0.874763388,5.88600378 0.537790221,5.25728005 C0.200817055,4.62855632 0.0221973471,4.00950866 0.00193109878,3.40013708 C-0.0183351496,2.7907655 0.120914324,2.23204809 0.419679521,1.72398486 C0.718444717,1.21592163 1.17631326,0.796552716 1.79328514,0.465878113 C2.53952733,0.0659193081 3.24982567,-0.0765144472 3.92418017,0.0385768475 Z"></path></clipPath><clipPath id="i23"><path d="M3.71914825,0 L4.36059337,0.881276432 L1.73293429,2.79384218 L2.80985592,4.27341637 L5.19496186,2.53739516 L5.81286772,3.38633117 L3.42776178,5.12235238 L4.5694164,6.69086273 L7.19707549,4.77829698 L7.83852062,5.65957342 L4.11937237,8.36658955 L0,2.70701613 L3.71914825,0 Z"></path></clipPath><clipPath id="i24"><path d="M4.22915583,0.0808237583 C4.582614,0.190421964 4.8951371,0.387480561 5.16672512,0.671999548 C5.42450359,0.942051468 5.60232948,1.25386098 5.7002028,1.6074281 C5.79807612,1.96099521 5.78108941,2.33664695 5.64924268,2.73438332 L5.58392985,2.90492566 L5.525,3.025 L8.57308312,4.13916341 L7.45911895,5.20249958 L4.64,4.104 L3.91796347,4.79480131 L5.80987329,6.77678951 L4.83334626,7.70893486 L0,2.64546135 L1.88795226,0.843313674 C2.2978525,0.452042786 2.70216361,0.19974386 3.1008856,0.0864168961 C3.49960758,-0.0269100682 3.87569766,-0.0287744475 4.22915583,0.0808237583 Z M3.46174521,1.2972143 C3.19311724,1.29096798 2.90931023,1.43054362 2.61032418,1.71594121 L1.75676722,2.5307053 L3.24129499,4.08591501 L4.09485196,3.27115093 C4.38901566,2.99035653 4.53697386,2.71087778 4.53874684,2.43271469 C4.54047928,2.1545516 4.42857755,1.89732234 4.20302139,1.66102691 C3.97746523,1.42473148 3.73037317,1.30346061 3.46174521,1.2972143 Z"></path></clipPath><clipPath id="i25"><path d="M3.37557245,0 L4.22936209,0.677601099 L2.96119122,2.27551933 L7.59045432,5.94948492 L6.75744013,6.99909787 L2.12817703,3.32513228 L0.853789641,4.93088344 L0,4.25328234 L3.37557245,0 Z"></path></clipPath><clipPath id="i26"><path d="M0.724010751,0 L6.63218384,3.75412982 L5.90817309,4.8935632 L0,1.13943338 L0.724010751,0 Z"></path></clipPath><clipPath id="i27"><path d="M2.00595701,0 L2.98482646,0.479494109 L1.5727383,3.36221974 L3.25208314,4.18483807 L4.38263347,1.87686148 L5.33456155,2.3431585 L4.20401122,4.65113509 L6.88018642,5.96204559 L6.28631757,7.17440684 L0,4.09508687 L2.00595701,0 Z"></path></clipPath><clipPath id="i28"><path d="M0.463033576,0 L7.0384125,2.40091484 L6.57537892,3.66902363 L0,1.26810879 L0.463033576,0 Z"></path></clipPath><clipPath id="i29"><path d="M1.09636186,0 L2.15495012,0.259790093 L1.38034663,3.41613124 L3.15760949,3.85229259 L3.86071112,0.987306008 L4.88045211,1.23756252 L4.17735048,4.1025491 L6.06144335,4.5649278 L6.83604684,1.40858665 L7.8946351,1.66837674 L6.79827324,6.13581344 L0,4.4674367 L1.09636186,0 Z"></path></clipPath><clipPath id="i30"><path d="M4.09565324,0.0294283655 C4.79850178,0.102788453 5.39685646,0.294272439 5.89071729,0.603880324 C6.38457811,0.913488208 6.74838807,1.34525535 6.98214717,1.89918176 C7.21590628,2.45310816 7.29022313,3.13785613 7.20509775,3.95342567 L6.96217897,6.28078264 L0,5.55410253 L0.24291878,3.22674556 C0.327352088,2.41780667 0.541295339,1.76482168 0.884748533,1.26779059 C1.22820173,0.770759498 1.67350367,0.421768001 2.22065437,0.220816094 C2.76780507,0.0198641877 3.39280469,-0.0439317218 4.09565324,0.0294283655 Z M2.67242784,1.47951611 C2.30978529,1.58242569 2.01850607,1.78829991 1.79859019,2.09713878 C1.57867431,2.40597765 1.43895709,2.8455149 1.37943852,3.41575051 L1.28393199,4.33077974 L5.94859191,4.81765542 L6.04409843,3.90262618 C6.103617,3.33239057 6.05767611,2.87347519 5.90627578,2.52588005 C5.75487545,2.1782849 5.51238762,1.91669854 5.17881227,1.74112095 C4.84523692,1.56554337 4.43643065,1.45249379 3.95239344,1.40197222 C3.46172559,1.35075857 3.03507039,1.37660654 2.67242784,1.47951611 Z"></path></clipPath><clipPath id="i31"><path d="M5.93821137,0 L6.35945998,1.3665466 L5.002,2.36 L5.793,4.928 L7.47591607,4.98837291 L7.89421888,6.34536324 L0.450706551,5.96101425 L0,4.49890495 L5.93821137,0 Z M4.105,3.017 L1.69849174,4.78108539 L4.682,4.888 L4.105,3.017 Z"></path></clipPath><clipPath id="i32"><path d="M5.49377595,0.0143815373 C5.97534036,0.0702200556 6.40034729,0.249678181 6.76879675,0.552755912 C7.1372462,0.855833644 7.42949706,1.24019891 7.64554933,1.70585171 C7.86160159,2.17150451 7.96427744,2.63831628 7.95357687,3.10628701 C7.9428763,3.57425775 7.80196406,4.00710281 7.53084017,4.40482222 C7.25971628,4.80254162 6.83387726,5.13608325 6.25332312,5.40544712 L2.352725,7.21523558 L1.7845356,5.99062919 L5.69420488,4.17663192 C6.00867171,4.03072649 6.24939723,3.85656629 6.41638147,3.65415132 C6.5833657,3.45173634 6.6726656,3.22840805 6.68428117,2.98416643 C6.69589674,2.73992482 6.63857237,2.48173663 6.51230806,2.20960188 C6.38323788,1.93141969 6.22170411,1.71790763 6.02770675,1.56906572 C5.8337094,1.4202238 5.60551876,1.34420387 5.34313482,1.34100592 C5.08075089,1.33780797 4.79232551,1.40916171 4.47785868,1.55506713 L0.5681894,3.3690644 L0,2.14445801 L3.90059813,0.334669555 C4.48115226,0.0653056916 5.01221154,-0.041456981 5.49377595,0.0143815373 Z"></path></clipPath><clipPath id="i33"><path d="M5.13706427,0.337282868 C5.66805442,0.619288594 6.15798375,1.10340845 6.60685225,1.78964242 L7.88776968,3.74791987 L2.02967476,7.57972413 L0.748757332,5.62144669 C0.30353817,4.94079185 0.0572136792,4.2993206 0.00978386018,3.69703295 C-0.0376459589,3.09474531 0.087370554,2.54296658 0.384833399,2.04169678 C0.682296244,1.54042698 1.12672198,1.0963772 1.71811061,0.709547438 C2.30949924,0.322717674 2.89442447,0.0934647066 3.47288629,0.0217885349 C4.05134812,-0.0498876368 4.60607411,0.0552771407 5.13706427,0.337282868 Z M3.63875031,1.35318409 C3.26920948,1.42761241 2.88080053,1.59802738 2.47352345,1.86442901 C2.06066724,2.13447998 1.7461048,2.42388151 1.52983614,2.73263363 C1.31356748,3.04138574 1.21764632,3.38493618 1.24207265,3.76328496 C1.26649899,4.14163374 1.43563367,4.57071107 1.74947668,5.05051693 L2.25308524,5.82043798 L6.17800884,3.25312912 L5.67440028,2.48320808 C5.36055726,2.00340221 5.03520672,1.67650633 4.69834866,1.50252045 C4.36149059,1.32853456 4.00829114,1.27875578 3.63875031,1.35318409 Z"></path></clipPath><clipPath id="i34"><path d="M5.37885191,0 L6.24279922,1.03735001 L0.863947309,5.5170768 L0,4.47972679 L5.37885191,0 Z"></path></clipPath><clipPath id="i35"><path d="M6.30600627,0 L7.27605352,0.924450287 L3.19881382,5.20279301 L4.68284133,6.61706397 L3.93086311,7.40613225 L0,3.66003892 L0.751978219,2.87097064 L2.22876657,4.27834272 L6.30600627,0 Z"></path></clipPath><clipPath id="i36"><path d="M4.15175473,0 L7.85532073,2.72829596 L3.703566,8.36415727 L0,5.63586131 L0.646487522,4.75827719 L3.26313741,6.6858776 L4.34852472,5.21250243 L1.97341174,3.46283436 L2.59617495,2.61745517 L4.97128793,4.36712323 L6.1219171,2.80518453 L3.50526721,0.877584118 L4.15175473,0 Z"></path></clipPath><clipPath id="i37"><path d="M3.37039772,8.4869487e-05 C3.97160938,-0.004640146 4.63291079,0.187929875 5.35430198,0.577794932 L7.41290608,1.69033668 L4.08478974,7.84855409 L2.02618563,6.73601234 C1.31065942,6.34931692 0.788703352,5.90241315 0.460317425,5.39530105 C0.131931498,4.88818895 -0.0207539589,4.3434174 0.00226105306,3.76098641 C0.0252760651,3.17855541 0.204774205,2.57649656 0.540755474,1.95480985 C0.876736743,1.33312314 1.28203619,0.85309522 1.75665381,0.514726089 C2.23127143,0.176356958 2.76918607,0.00480988497 3.37039772,8.4869487e-05 Z M3.53918813,1.23368116 C3.1601224,1.24100337 2.82580445,1.36533875 2.53623429,1.6066873 C2.24666412,1.84803584 1.98618737,2.18278148 1.75480405,2.61092421 C1.52025109,3.04493192 1.38135387,3.44917237 1.3381124,3.82364556 C1.29487093,4.19811876 1.3740333,4.54591338 1.57559949,4.86702943 C1.77716569,5.18814547 2.13014245,5.48499778 2.63452978,5.75758636 L3.44389549,6.19499593 L5.67373344,2.06899027 L4.86436773,1.63158069 C4.3599804,1.35899212 3.91825387,1.22635894 3.53918813,1.23368116 Z"></path></clipPath><clipPath id="i38"><path d="M3.51864706,0.130537188 L6.38143552,0.921323013 L4.51763055,7.66863589 L1.75123227,6.90447585 C1.28213337,6.77489703 0.907346722,6.59183216 0.626872313,6.35528127 C0.346397904,6.11873037 0.160173854,5.84769625 0.0682001615,5.54217892 C-0.0237735308,5.23666159 -0.0227214895,4.9136136 0.0713562854,4.57303495 C0.16543406,4.2324563 0.318323031,3.96691185 0.530023198,3.77640162 C0.741723365,3.58589138 0.985367938,3.46126487 1.26095692,3.4025221 C1.37119251,3.37902499 1.48294064,3.36507524 1.59620131,3.36067287 L1.67,3.36 L1.59204594,3.32238432 C1.43445967,3.23486651 1.29588801,3.12583487 1.17633098,2.99528942 C0.977069246,2.77771367 0.84297227,2.52453674 0.774040049,2.23575864 C0.705107827,1.94698054 0.71146792,1.6547932 0.793120329,1.35919664 C0.892523261,0.999339952 1.06713952,0.705215552 1.3169691,0.476823438 C1.56679868,0.248431324 1.87732118,0.100780453 2.24853659,0.0338708223 C2.61975199,-0.033038808 3.04312215,-0.00081668592 3.51864706,0.130537188 Z M1.90092074,4.16545807 C1.68160415,4.27086843 1.5328947,4.46494588 1.45479239,4.74769042 C1.37846514,5.02400894 1.40691479,5.26529383 1.54014135,5.47154507 C1.6733679,5.67779631 1.91348351,5.82884834 2.26048817,5.92470117 L3.50392155,6.2681738 L3.993836,4.49459441 L2.74076361,4.14845921 C2.40018496,4.05438143 2.12023733,4.06004772 1.90092074,4.16545807 Z M2.5519408,1.26406222 C2.31478412,1.37146096 2.15449205,1.57617162 2.07106459,1.87819419 C1.98763713,2.18021677 2.02200715,2.44388603 2.17417464,2.66920198 C2.32634213,2.89451793 2.57914122,3.05598984 2.93257189,3.15361772 L4.26275643,3.52105356 L4.7872844,1.62216693 L3.43782182,1.24940594 C3.08439115,1.15177806 2.78909747,1.15666349 2.5519408,1.26406222 Z"></path></clipPath><clipPath id="i39"><path d="M3.26826228,0 L4.6063169,0.179192167 L4.27978895,2.61742503 L6.01629003,7.43050762 L4.49982813,7.22742316 L3.419,3.878 L1.50655039,6.82656365 L0,6.62480654 L2.94173433,2.43823286 L3.26826228,0 Z"></path></clipPath><clipPath id="i40"><path d="M7.00271107,0 L9.6099821,6.7518692 L8.17891962,6.91205711 L6.35800013,1.611722 L5.5354292,7.20795976 L4.05467704,7.37370974 L2.05487475,2.09339812 L1.44100042,7.66627515 L0,7.82757547 L1.09957832,0.660775098 L2.69958568,0.481676123 L4.59860098,5.40095868 L5.41264164,0.177986558 L7.00271107,0 Z"></path></clipPath><clipPath id="i41"><path d="M1.30979835,0 L3.0053483,6.79154698 L1.69554996,7.1185459 L0,0.32699892 L1.30979835,0 Z"></path></clipPath><clipPath id="i42"><path d="M5.53278388,0 L8.02283681,6.54214311 L6.76113778,7.0223676 L2.03361543,3.6537132 L3.75175195,8.16779195 L2.49005293,8.64801644 L0,2.10587333 L1.26169903,1.62564884 L5.98566416,4.98495732 L4.27108486,0.480224493 L5.53278388,0 Z"></path></clipPath><clipPath id="i43"><path d="M3.90788924,0.219208458 C4.27085125,0.39884611 4.57021002,0.693913702 4.80596554,1.10441123 L3.55601676,1.79905363 C3.44979829,1.62164678 3.31250422,1.48439071 3.14413456,1.38728542 C2.9757649,1.29018014 2.7908902,1.24228896 2.58951044,1.24361188 C2.38813069,1.24493479 2.17963637,1.30550714 1.96402749,1.4253289 C1.77755495,1.52895854 1.63285003,1.64941801 1.52991272,1.78670733 C1.42697542,1.92399664 1.36839458,2.06905011 1.35417021,2.22186772 C1.33994583,2.37468533 1.37493318,2.52684861 1.45913226,2.67835755 C1.55628504,2.85317556 1.67949338,2.97537865 1.82875727,3.04496681 C1.97802117,3.11455498 2.14961975,3.14884999 2.34355303,3.14785187 C2.5374863,3.14685374 2.75068061,3.12561783 2.98313596,3.08414412 C3.2155913,3.04267042 3.46067318,2.99989992 3.7183816,2.95583263 C4.28948227,2.84437947 4.77464025,2.84933064 5.17385554,2.97068612 C5.57307083,3.0920416 5.89250023,3.36832822 6.13214376,3.79954598 C6.33616461,4.16666381 6.42217379,4.53072222 6.39017132,4.89172123 C6.35816885,5.25272025 6.22369252,5.59058446 5.98674232,5.90531388 C5.74979213,6.22004329 5.43027632,6.4891337 5.0281949,6.7125851 C4.61445894,6.94251335 4.21204085,7.07272135 3.82094062,7.10320911 C3.4298404,7.13369686 3.06802703,7.06591881 2.73550052,6.89987494 C2.40297401,6.73383108 2.13340591,6.47178309 1.92679623,6.11373096 L3.1854859,5.41423092 C3.26579697,5.54501964 3.37556679,5.64990332 3.51479536,5.72888197 C3.65402394,5.80786062 3.80797832,5.84814767 3.97665852,5.84974314 C4.14533872,5.8513386 4.31708783,5.80355994 4.49190584,5.70640716 C4.64665321,5.62803535 4.7720971,5.52781366 4.8682375,5.4057421 C4.96437791,5.28367053 5.0205323,5.151406 5.03670068,5.0089485 C5.05286907,4.86649101 5.01885372,4.71950778 4.93465464,4.56799884 C4.85369399,4.42231717 4.74926662,4.32018472 4.62137254,4.26160151 C4.49347846,4.20301829 4.34519132,4.17292896 4.17651112,4.17133349 C4.00783092,4.16973803 3.81908007,4.18692353 3.61025859,4.22289001 C3.40143711,4.25885649 3.17723785,4.30146222 2.93766081,4.35070719 C2.57635126,4.41421454 2.22782589,4.44582957 1.8920847,4.44555228 C1.55634351,4.44527498 1.24956914,4.37360417 0.971761578,4.23053983 C0.693954018,4.08747549 0.451420604,3.82947078 0.244161335,3.45652569 C0.0660479012,3.136026 -0.0146164568,2.79187821 0.00216826144,2.4240823 C0.0189529797,2.0562864 0.139181187,1.69964596 0.362852884,1.35416099 C0.586524581,1.00867603 0.934364744,0.704777291 1.40637337,0.442464779 C1.84924567,0.196344397 2.28614255,0.0526955022 2.71706401,0.0115180934 C3.14798548,-0.0296593154 3.54492722,0.0395708061 3.90788924,0.219208458 Z"></path></clipPath><clipPath id="i44"><path d="M1.07495881,0 L4.60349222,4.74104967 L6.24801875,3.5171083 L6.89879733,4.3915151 L2.54280753,7.63346711 L1.89202895,6.75906032 L3.52853341,5.5410894 L0,0.800039723 L1.07495881,0 Z"></path></clipPath><clipPath id="i45"><path d="M4.44572437,0.150483543 C5.03596403,0.33179185 5.58134384,0.676574025 6.08186381,1.18483007 C6.58238378,1.69308611 6.91876111,2.24368958 7.0909958,2.83664048 C7.26323048,3.42959138 7.27168403,4.01775064 7.11635643,4.60111826 C6.96102884,5.18448588 6.64111216,5.71473528 6.1566064,6.19186647 C5.66735058,6.67367541 5.12988207,6.9877611 4.54420086,7.13412352 C3.95851964,7.28048595 3.37174672,7.26184357 2.78388209,7.07819639 C2.19601746,6.8945492 1.65182516,6.54859759 1.15130519,6.04034155 C0.650785223,5.5320855 0.31322038,4.98265147 0.138610663,4.39203945 C-0.0359990533,3.80142743 -0.0456401138,3.21443761 0.109687482,2.63106999 C0.265015077,2.04770237 0.587306783,1.51511409 1.0765626,1.03330514 C1.56106836,0.556173957 2.09616185,0.244427151 2.68184306,0.0980647238 C3.26752427,-0.048297703 3.85548471,-0.0308247631 4.44572437,0.150483543 Z M2.9163255,1.33380053 C2.55507902,1.41352843 2.224829,1.60074172 1.92557545,1.89544039 C1.62157183,2.19481682 1.42812812,2.52332621 1.34524432,2.88096857 C1.26236052,3.23861092 1.28546731,3.60649446 1.41456471,3.98461918 C1.5436621,4.36274391 1.7812878,4.72755836 2.1274418,5.07906254 C2.47827355,5.43531677 2.84057015,5.67969707 3.21433161,5.81220341 C3.58809306,5.94470976 3.95324007,5.97108091 4.30977264,5.89131686 C4.66630521,5.81155281 4.99657331,5.62198257 5.30057692,5.32260614 C5.59983048,5.02790746 5.79325611,4.70175502 5.88085382,4.34414882 C5.96845153,3.98654262 5.94887113,3.61986467 5.82211261,3.24411497 C5.69535409,2.86836527 5.45655896,2.50236331 5.1057272,2.14610907 C4.75957321,1.79460489 4.39844604,1.55141212 4.02234571,1.41653074 C3.64624538,1.28164937 3.27757198,1.25407263 2.9163255,1.33380053 Z"></path></clipPath><clipPath id="i46"><path d="M3.54954337,0 L9.15172079,4.1970952 L8.342281,5.27751513 L2.54611479,4.95852106 L6.41161721,7.85451675 L5.60217742,8.93493668 L0,4.73784148 L0.809439789,3.65742155 L6.59760289,3.97041977 L2.74010358,1.08041993 L3.54954337,0 Z"></path></clipPath><clipPath id="i47"><path d="M2.61118049,0 L8.04048117,5.10649529 L7.43880855,6.51322556 L0,6.10502551 L0.562347605,4.79023839 L2.24,4.909 L3.297,2.439 L2.05276538,1.3055928 L2.61118049,0 Z M4.118,3.188 L3.349,4.988 L6.32568652,5.19965815 L4.118,3.188 Z"></path></clipPath><clipPath id="i48"><path d="M0.389494342,0 L7.09182339,2.01960029 L6.70232905,3.31219232 L0,1.29259203 L0.389494342,0 Z"></path></clipPath><clipPath id="i49"><path d="M0.991666667,0 C1.18055556,0 1.35138889,0.0442600277 1.50416667,0.132780083 C1.65694444,0.221300138 1.77777778,0.341632089 1.86666667,0.493775934 C1.95555556,0.645919779 2,0.81604426 2,1.00414938 C2,1.18672199 1.95555556,1.35408022 1.86666667,1.50622407 C1.77777778,1.65836791 1.65694444,1.77869986 1.50416667,1.86721992 C1.35138889,1.95573997 1.18055556,2 0.991666667,2 C0.813888889,2 0.648611111,1.95573997 0.495833333,1.86721992 C0.343055556,1.77869986 0.222222222,1.65836791 0.133333333,1.50622407 C0.0444444444,1.35408022 0,1.18672199 0,1.00414938 C0,0.81604426 0.0444444444,0.645919779 0.133333333,0.493775934 C0.222222222,0.341632089 0.343055556,0.221300138 0.495833333,0.132780083 C0.648611111,0.0442600277 0.813888889,0 0.991666667,0 Z"></path></clipPath></defs><g clip-path="url(#i0)"><g transform="translate(1.0 0.0)"><g clip-path="url(#i1)"><polygon points="0,0 158,0 158,159 0,159 0,0" stroke="none" fill="#FFFFFF"></polygon></g><g transform="translate(26.0 27.0)"><g transform="translate(0.0 23.0)"><path d="M9,0 C7.10550685,2.75819238 5.47415918,5.70568921 4.14068294,8.80777834 C2.80739963,11.9100572 1.77218066,15.1669283 1.07033075,18.5438693 C0.368480847,21.9206206 0,25.4176314 0,29" stroke="#3451FE" stroke-width="2" fill="none" stroke-miterlimit="10"></path></g><g transform="translate(23.0 0.0)"><path d="M82,53 C82,49.3381684 81.6325493,45.7635879 80.9326614,42.3119346 C80.2327735,38.8600873 79.2002562,35.5309732 77.8707001,32.3598806 C76.5411441,29.1889819 74.9143569,26.1761045 73.0251599,23.3567308 C71.1361553,20.537357 68.9847408,17.9114868 66.6065072,15.5146022 C64.2280813,13.1175238 61.6226439,10.9492371 58.8252087,9.04541813 C56.0277735,7.14140531 53.0383404,5.50186026 49.8919232,4.16168342 C46.7456984,2.82170046 43.4424893,1.78127961 40.0176945,1.07590297 C36.5927073,0.370526323 33.0459419,0 29.4126043,0 C25.7792668,0 22.2325014,0.370526323 18.8077066,1.07590297 C15.3827194,1.78127961 12.0795103,2.82170046 8.93309309,4.16168342 C5.78686825,5.50186026 2.79743521,7.14140531 0,9.04541813" stroke="#3451FE" stroke-width="2" fill="none" stroke-miterlimit="10"></path></g><g transform="translate(61.0 11.0)"><path d="M0,0 C2.69211073,0.557090179 5.28857423,1.37846807 7.76160363,2.4365758 C10.2348221,3.49487491 12.5846064,4.7895211 14.7835478,6.29276512 C16.9823003,7.79620052 19.0303988,9.50823376 20.8998677,11.4009242 C22.7693365,13.2936146 24.4603646,15.3671537 25.9453543,17.5934093 C27.4301548,19.8194735 28.7091059,22.1984457 29.7540426,24.7023852 C30.7993573,27.2061333 31.6106576,29.8348488 32.1609128,32.5603996 C32.710979,35.2861417 33,38.1085278 33,41" stroke="#3451FE" stroke-width="2" fill="none" stroke-miterlimit="10"></path></g><g transform="translate(11.0 11.0)"><path d="M0,41 C0,38.1085278 0.289021016,35.2861417 0.839087175,32.5603996 C1.38915333,29.8348488 2.20064269,27.2061333 3.24576839,24.7023852 C4.29108312,22.1984457 5.56984517,19.8194735 7.05464575,17.5934093 C8.53963535,15.3671537 10.2306635,13.2936146 12.1001323,11.4009242 C13.9696012,9.50823376 16.0176997,7.79620052 18.2164522,6.29276512 C20.4153936,4.7895211 22.7651779,3.49487491 25.2383964,2.4365758 C27.7114258,1.37846807 30.3078893,0.557090179 33,0" stroke="#3451FE" stroke-width="2" fill="none" stroke-miterlimit="10"></path></g><g transform="translate(21.0 21.0)"><path d="M54,9.36729082 C52.5694317,7.91995561 51.0023249,6.61075917 49.3198933,5.46135883 C47.6372688,4.31176338 45.8391266,3.32176893 43.9468731,2.5126426 C42.0544268,1.70351627 40.0676764,1.07545318 38.0078355,0.649525331 C35.9478017,0.223597486 33.8146774,0 31.6292905,0 C29.4440964,0 27.3107793,0.223597486 25.2507455,0.649525331 C23.1909046,1.07545318 21.2041542,1.70351627 19.3117078,2.5126426 C17.4192615,3.32176893 15.6213122,4.31176338 13.9388805,5.46135883 C12.256256,6.61075917 10.6891493,7.91995561 9.25877383,9.36729082 C7.82820552,10.8144309 6.53436854,12.3999049 5.39809078,14.1022505 C4.26181301,15.804401 3.28328732,17.6236182 2.48353446,19.5380497 C1.68397444,21.4526764 1.0629944,23.4627124 0.642000793,25.5466956 C0.221007182,27.6308739 0,29.7889994 0,32" stroke="#3451FE" stroke-width="2" fill="none" stroke-miterlimit="10"></path></g><g transform="translate(82.0 40.0)"><path d="M2,12 C2,9.87095865 1.82203587,7.79283243 1.4830344,5.78591223 C1.14403292,3.77917991 0.643994099,1.84365361 0,0" stroke="#3451FE" stroke-width="2" fill="none" stroke-miterlimit="10"></path></g><g transform="translate(35.0 32.0)"><path d="M0,9.25456607 C0.746252837,8.13733435 1.59604636,7.0969279 2.5355118,6.1471753 C3.47497725,5.19742269 4.50411463,4.33832393 5.60924517,3.58389961 C6.71418572,2.8294753 7.89511944,2.1799175 9.13798758,1.64886271 C10.3806657,1.11799998 11.6854683,0.705640256 13.0383365,0.426188277 C14.3912048,0.146736297 15.7921387,0 17.2274595,0 C18.6625904,0 20.0637143,0.146736297 21.4165825,0.426188277 C22.7694507,0.705640256 24.0742533,1.11799998 25.3171215,1.64886271 C26.5597996,2.1799175 27.7407333,2.8294753 28.8456739,3.58389961 C29.9508044,4.33832393 30.9799418,5.19742269 31.9194073,6.1471753 C32.8588727,7.0969279 33.7086662,8.13733435 34.4549191,9.25456607 C35.2011719,10.3716057 35.8436941,11.5654707 36.3689968,12.8219483 C36.8941095,14.0782338 37.3020028,15.3973239 37.5784279,16.7650061 C37.8548531,18.1326882 38,19.5489624 38,21" stroke="#3451FE" stroke-width="2" fill="none" stroke-miterlimit="10"></path></g><g transform="translate(31.0 48.0)"><path d="M0,4 C0,2.62947846 0.344299234,1.29179138 1,0" stroke="#3451FE" stroke-width="2" fill="none" stroke-miterlimit="10"></path></g><g transform="translate(42.0 42.0)"><path d="M21,11 C21,10.2400402 20.9266325,9.49818913 20.7868118,8.78169014 C20.646991,8.06539235 20.4409091,7.37444668 20.1754802,6.71629779 C19.9100512,6.05814889 19.5850832,5.43279678 19.2078745,4.84768612 C18.8308579,4.26257545 18.4012164,3.71750503 17.9264405,3.22012072 C17.4514725,2.72253521 16.931178,2.27263581 16.3726633,1.87746479 C15.8141485,1.48209256 15.2172215,1.14185111 14.5889885,0.863782696 C13.9609475,0.585714286 13.3014085,0.369818913 12.6174776,0.22334004 C11.9335467,0.076861167 11.2254161,0 10.5,0 C9.77458387,0 9.06645327,0.076861167 8.38252241,0.22334004 C7.69878361,0.369818913 7.03924456,0.585714286 6.41101152,0.863782696 C5.78277849,1.14185111 5.18585147,1.48209256 4.62733675,1.87746479 C4.06882202,2.27263581 3.54852753,2.72253521 3.0737516,3.22012072 C2.59878361,3.71750503 2.16933419,4.26257545 1.79212548,4.84768612 C1.41491677,5.43279678 1.08994878,6.05814889 0.824519846,6.71629779 C0.559090909,7.37444668 0.353008963,8.06539235 0.21318822,8.78169014 C0.0733674776,9.49818913 0,10.2400402 0,11" stroke="#3451FE" stroke-width="2" fill="none" stroke-miterlimit="10"></path></g><g transform="translate(85.0 63.0)"><path d="M9,0 C8.78945851,1.77356418 8.52782829,3.53180103 8.21630671,5.27394417 C7.9049847,7.01608731 7.54397091,8.74175357 7.13466229,10.4494102 C6.72535367,12.1572585 6.26775023,13.8472887 5.76344849,15.5181597 C5.25894718,17.1890307 4.70794714,18.840551 4.11144618,20.471571 C3.51494523,22.102591 2.87294337,23.7131106 2.18723668,25.3015972 C1.50153,26.8900839 0.772118497,28.456729 0,30" stroke="#3451FE" stroke-width="2" fill="none" stroke-miterlimit="10"></path></g><g transform="translate(67.0 53.0)"><path d="M17,0 C17,2.34473509 16.9012744,4.6665444 16.707545,6.96218009 C16.5138156,9.25762474 16.2250824,11.5267047 15.8454589,13.7655991 C15.4656396,16.0046845 14.9949301,18.2133932 14.4368562,20.3882865 C13.8787823,22.5631797 13.2333441,24.7040663 12.5046551,26.8073164 C11.7757703,28.9105665 10.9636347,30.9763712 10.0717742,33.0005273 C9.1801097,35.0248745 8.2087203,37.0075732 7.16152375,38.9453755 C6.1143272,40.8829868 4.99132349,42.7757017 3.79662618,44.6193173 C2.601733,46.4629328 1.33495034,48.2578311 0,50" stroke="#3451FE" stroke-width="2" fill="none" stroke-miterlimit="10"></path></g><g transform="translate(52.0 53.0)"><path d="M0,52 C1.69798141,50.3467531 3.31527163,48.6127019 4.84532292,46.8041355 C6.3755668,44.9953785 7.81857175,43.1119158 9.16836779,41.1602268 C10.5177787,39.2083472 11.7739806,37.1882415 12.930426,35.1058173 C14.0868713,33.0235838 15.1435599,30.8792224 16.0939442,28.6790223 C17.0445211,26.4790128 17.8889862,24.2229739 18.6207917,21.9173853 C19.3525972,19.6117967 19.9721284,17.2568488 20.4728374,14.8584497 C20.9733539,12.4600505 21.3552408,10.0185812 21.6117579,7.54014007 C21.8684676,5.06169899 22,2.54609557 22,0" stroke="#3451FE" stroke-width="2" fill="none" stroke-miterlimit="10"></path></g><g transform="translate(38.0 68.0)"><path d="M0,35 C1.87978587,33.580858 3.6761644,32.0569739 5.38081376,30.4368864 C7.08565226,28.8166091 8.69857246,27.100508 10.2112525,25.2967423 C11.7241218,23.4929765 13.1365617,21.6015462 14.4400615,19.6313695 C15.7435613,17.6610031 16.9381208,15.61208 18.0154184,13.4923802 C19.0925268,11.3728701 20.0521841,9.18315235 20.8856901,6.93157607 C21.7193852,4.67981003 22.4269291,2.36656492 23,0" stroke="#3451FE" stroke-width="2" fill="none" stroke-miterlimit="10"></path></g><g transform="translate(49.0 52.0)"><path d="M0,21 C0.858487953,18.8505855 1.58903351,16.6286989 2.18166713,14.3459279 C2.77430075,12.0629606 3.22883781,9.7189125 3.53530878,7.32438929 C3.84159513,4.92986607 4,2.48467136 4,0" stroke="#3451FE" stroke-width="2" fill="none" stroke-miterlimit="10"></path></g><g transform="translate(27.0 85.0)"><path d="M0,13 C1.93594284,11.8870283 3.79258885,10.6534296 5.55950424,9.30919345 C7.32622992,7.9649573 9.0034147,6.51008366 10.5802454,4.95512737 C12.157076,3.40017108 13.633932,1.74513215 15,0" stroke="#3451FE" stroke-width="2" fill="none" stroke-miterlimit="10"></path></g><g transform="translate(17.0 52.0)"><path d="M0,39 C1.84004879,38.1799097 3.61090992,37.2283249 5.30095681,36.1565276 C6.9910037,35.0849248 8.60004574,33.8933041 10.1170282,32.5933365 C11.6340106,31.2931744 13.0585522,29.88486 14.3797888,28.3798698 C15.7008348,26.8746852 16.9181946,25.2728248 18.0208135,23.5857652 C19.1230511,21.8989002 20.1105478,20.1268361 20.9714863,18.2812439 C21.8326154,16.4354572 22.5671864,14.5165316 23.1639538,12.53536 C23.7607212,10.5545774 24.2196851,8.51174343 24.5296001,6.41852914 C24.8393245,4.32531485 25,2.18210928 25,0" stroke="#3451FE" stroke-width="2" fill="none" stroke-miterlimit="10"></path></g><g transform="translate(10.0 53.0)"><path d="M0,30 C1.59458284,29.5012391 3.13424605,28.8786981 4.60789089,28.1434904 C6.08153573,27.4082827 7.48897084,26.5604083 8.81928885,25.6113638 C10.1496068,24.6623192 11.402425,23.611913 12.5670273,22.4710669 C13.7314383,21.3304123 14.8074421,20.0997011 15.7837485,18.7898549 C16.760055,17.4800087 17.6368555,16.0914108 18.4026686,14.6347913 C19.1684817,13.1781718 19.8234987,11.653914 20.3564296,10.0731312 C20.8893605,8.49234837 21.3002053,6.85504062 21.5778651,5.1725129 C21.855525,3.48998518 22,1.76204588 22,0" stroke="#3451FE" stroke-width="2" fill="none" stroke-miterlimit="10"></path></g><g transform="translate(4.0 52.0)"><path d="M0,21 C1.21297193,20.7555703 2.38818974,20.4065528 3.51636012,19.9625447 C4.64453049,19.5183406 5.72545983,18.9795376 6.74966118,18.3553408 C7.77386254,17.7311441 8.74152953,17.0215536 9.642788,16.2365581 C10.5442401,15.4517585 11.3792836,14.5909663 12.1386254,13.6643661 C12.8977735,12.7377659 13.5812197,11.7453577 14.1794773,10.6965427 C14.7775411,9.64792345 15.2902227,8.54270152 15.7082285,7.39106145 C16.1260407,6.23961724 16.4489835,5.04136317 16.6673766,3.8064838 C16.8859632,2.57121273 17,1.29931637 17,0" stroke="#3451FE" stroke-width="2" fill="none" stroke-miterlimit="10"></path></g><g transform="translate(1.0 52.0)"><path d="M0,11 C0.690885145,11 1.36530758,10.9229376 2.01668221,10.77666 C2.66787393,10.6301811 3.29601785,10.4142857 3.89434597,10.1362173 C4.49267409,9.85794769 5.06118641,9.51770624 5.59311493,9.12253521 C6.12504344,8.72736419 6.62057107,8.27746479 7.07292981,7.77987928 C7.52510564,7.28229376 7.93429549,6.73742455 8.29336553,6.15231388 C8.65261849,5.56720322 8.96211747,4.94185111 9.21491156,4.28370221 C9.46770565,3.62575453 9.66397776,2.93460765 9.7971428,2.21830986 C9.93030785,1.50181087 10,0.759959759 10,0" stroke="#3451FE" stroke-width="2" fill="none" stroke-miterlimit="10"></path></g></g><g transform="translate(17.0 18.0)"><path d="M124,62.000237 C124,96.2420296 96.2416617,124 62,124 C27.7583383,124 0,96.2420296 0,62.000237 C0,27.7584444 27.7583383,0 62,0 C96.2416617,0 124,27.7584444 124,62.000237 Z" stroke="#3451FE" stroke-width="1" fill="none" stroke-miterlimit="10"></path><g transform="translate(5.0 48.0)"><g clip-path="url(#i2)"><polygon points="0,0 114,0 114,29 0,29 0,0" stroke="none" fill="#FFFFFF"></polygon></g></g><g transform="translate(8.13831578947368 52.39999999999999)"><g transform=""><g clip-path="url(#i3)"><polygon points="0,0 15.736,0 15.736,19.6 0,19.6 0,0" stroke="none" fill="#3451FE"></polygon></g></g><g transform="translate(20.007228070175472 1.4210854715202004e-14)"><g clip-path="url(#i4)"><polygon points="0,0 15.344,0 15.344,19.936 0,19.936 0,0" stroke="none" fill="#3451FE"></polygon></g></g><g transform="translate(39.62245614035089 1.4210854715202004e-14)"><g clip-path="url(#i5)"><polygon points="0,0 20.468,0 20.468,19.6 0,19.6 0,0" stroke="none" fill="#3451FE"></polygon></g></g><g transform="translate(64.55768421052636 1.4210854715202004e-14)"><g clip-path="url(#i6)"><polygon points="0,0 16.156,0 16.156,19.6 0,19.6 0,0" stroke="none" fill="#3451FE"></polygon></g></g><g transform="translate(85.26491228070171 9.940000000000012)"><g clip-path="url(#i7)"><polygon points="0,0 11.592,0 11.592,2.8 0,2.8 0,0" stroke="none" fill="#3451FE"></polygon></g></g><g transform="translate(100.34414035087724 1.4210854715202004e-14)"><g clip-path="url(#i8)"><polygon points="0,0 6.916,0 6.916,19.6 0,19.6 0,0" stroke="none" fill="#3451FE"></polygon></g></g></g></g><g transform="translate(0.0 1.0)"><g clip-path="url(#i9)"><polygon points="0,0 158,0 158,158 0,158 0,0" stroke="none" fill="#3352FE"></polygon></g></g></g><g transform="translate(5.433606693541833 5.300279189267201)"><g transform="translate(0.0 81.76888905606934)"><g clip-path="url(#i10)"><polygon points="0,0 7.71749174,0 7.71749174,6.65740889 0,6.65740889 0,0" stroke="none" fill="#FFFFFF"></polygon></g></g><g transform="translate(2.4922671850042097 91.56786700518884)"><g clip-path="url(#i11)"><polygon points="1.2021437e-16,0 7.76195711,0 7.76195711,6.72560998 1.2021437e-16,6.72560998 1.2021437e-16,0" stroke="none" fill="#FFFFFF"></polygon></g></g><g transform="translate(5.440139382105941 100.75796791064121)"><g clip-path="url(#i12)"><polygon points="0,0 9.51657966,0 9.51657966,9.74686611 0,9.74686611 0,0" stroke="none" fill="#FFFFFF"></polygon></g></g><g transform="translate(11.088887806236414 112.76833451607064)"><g clip-path="url(#i13)"><polygon points="0,0 8.08513462,0 8.08513462,7.32930728 0,7.32930728 0,0" stroke="none" fill="#FFFFFF"></polygon></g></g><g transform="translate(17.918822539747623 119.08192954209278)"><g clip-path="url(#i14)"><polygon points="0,0 9.15967676,0 9.15967676,9.09615204 0,9.09615204 0,0" stroke="none" fill="#FFFFFF"></polygon></g></g><g transform="translate(31.767148484952433 130.77196521413356)"><g clip-path="url(#i15)"><polygon points="-7.72114772e-16,7.96079239e-15 7.06894406,7.96079239e-15 7.06894406,7.2882126 -7.72114772e-16,7.2882126 -7.72114772e-16,7.96079239e-15" stroke="none" fill="#FFFFFF"></polygon></g></g><g transform="translate(41.23665217268632 135.99106870356763)"><g clip-path="url(#i16)"><polygon points="1.77911403e-15,8.88046236e-16 7.08242988,8.88046236e-16 7.08242988,7.28278057 1.77911403e-15,7.28278057 1.77911403e-15,8.88046236e-16" stroke="none" fill="#FFFFFF"></polygon></g></g><g transform="translate(51.17950660324442 139.2269727883684)"><g clip-path="url(#i17)"><polygon points="0,0 7.65282125,0 7.65282125,8.38467107 0,8.38467107 0,0" stroke="none" fill="#FFFFFF"></polygon></g></g><g transform="translate(62.45940328476803 141.63585644866652)"><g clip-path="url(#i18)"><polygon points="0,0 5.5295245,0 5.5295245,7.40868108 0,7.40868108 0,0" stroke="none" fill="#FFFFFF"></polygon></g></g><g transform="translate(71.85170243036657 142.64429268812628)"><g clip-path="url(#i19)"><polygon points="0,0 4.71147607,0 4.71147607,7.072746 0,7.072746 0,0" stroke="none" fill="#FFFFFF"></polygon></g></g><g transform="translate(80.70400255681022 141.69174893653198)"><g clip-path="url(#i20)"><polygon points="0,0 6.73718357,0 6.73718357,7.67592267 0,7.67592267 0,0" stroke="none" fill="#FFFFFF"></polygon></g></g><g transform="translate(90.30572407540353 139.41649946790446)"><g clip-path="url(#i21)"><polygon points="0,0 5.52387233,0 5.52387233,7.6484393 0,7.6484393 0,0" stroke="none" fill="#FFFFFF"></polygon></g></g><g transform="translate(105.29086654573723 133.74407541436432)"><g clip-path="url(#i22)"><polygon points="-1.6004904e-15,-1.07367643e-14 6.98716861,-1.07367643e-14 6.98716861,7.30241057 -1.6004904e-15,7.30241057 -1.6004904e-15,-1.07367643e-14" stroke="none" fill="#FFFFFF"></polygon></g></g><g transform="translate(113.2701201931468 127.88393118293926)"><g clip-path="url(#i23)"><polygon points="0,0 7.83852062,0 7.83852062,8.36658955 0,8.36658955 0,0" stroke="none" fill="#FFFFFF"></polygon></g></g><g transform="translate(120.16304365084716 122.48316512091026)"><g clip-path="url(#i24)"><polygon points="0,-6.22188017e-15 8.57308312,-6.22188017e-15 8.57308312,7.70893486 0,7.70893486 0,-6.22188017e-15" stroke="none" fill="#FFFFFF"></polygon></g></g><g transform="translate(126.31905950760905 114.5683770369543)"><g clip-path="url(#i25)"><polygon points="0,0 7.59045432,0 7.59045432,6.99909787 0,6.99909787 0,0" stroke="none" fill="#FFFFFF"></polygon></g></g><g transform="translate(132.00253060084435 109.99420514469207)"><g clip-path="url(#i26)"><polygon points="0,0 6.63218384,0 6.63218384,4.8935632 0,4.8935632 0,0" stroke="none" fill="#FFFFFF"></polygon></g></g><g transform="translate(134.89794620633188 101.98248327762207)"><g clip-path="url(#i27)"><polygon points="0,0 6.88018642,0 6.88018642,7.17440684 0,7.17440684 0,0" stroke="none" fill="#FFFFFF"></polygon></g></g><g transform="translate(138.4224200335235 96.83039942498307)"><g clip-path="url(#i28)"><polygon points="0,0 7.0384125,0 7.0384125,3.66902363 0,3.66902363 0,0" stroke="none" fill="#FFFFFF"></polygon></g></g><g transform="translate(140.175319660505 88.0573080774045)"><g clip-path="url(#i29)"><polygon points="0,0 7.8946351,0 7.8946351,6.13581344 0,6.13581344 0,0" stroke="none" fill="#FFFFFF"></polygon></g></g><g transform="translate(141.91937267563617 78.36979679525514)"><g clip-path="url(#i30)"><polygon points="0,5.33751644e-15 7.23918375,5.33751644e-15 7.23918375,6.28078264 0,6.28078264 0,5.33751644e-15" stroke="none" fill="#FFFFFF"></polygon></g></g><g transform="translate(139.2205104520915 49.30423369762978)"><g clip-path="url(#i31)"><polygon points="0,0 7.89421888,0 7.89421888,6.34536324 0,6.34536324 0,0" stroke="none" fill="#FFFFFF"></polygon></g></g><g transform="translate(134.7912410452709 40.90092620141233)"><g clip-path="url(#i32)"><polygon points="0,1.96330232e-15 7.95433431,1.96330232e-15 7.95433431,7.21523558 0,7.21523558 0,1.96330232e-15" stroke="none" fill="#FFFFFF"></polygon></g></g><g transform="translate(130.6374020524712 31.82677076490074)"><g clip-path="url(#i33)"><polygon points="-3.10537793e-15,4.55664864e-16 7.88776968,4.55664864e-16 7.88776968,7.57972413 -3.10537793e-15,7.57972413 -3.10537793e-15,4.55664864e-16" stroke="none" fill="#FFFFFF"></polygon></g></g><g transform="translate(125.91593947139951 25.62052183568288)"><g clip-path="url(#i34)"><polygon points="0,0 6.24279922,0 6.24279922,5.5170768 0,5.5170768 0,0" stroke="none" fill="#FFFFFF"></polygon></g></g><g transform="translate(119.23483991135947 19.729603876035043)"><g clip-path="url(#i35)"><polygon points="0,0 7.27605352,0 7.27605352,7.40613225 0,7.40613225 0,0" stroke="none" fill="#FFFFFF"></polygon></g></g><g transform="translate(112.43951028980416 12.526835911252515)"><g clip-path="url(#i36)"><polygon points="0,0 7.85532073,0 7.85532073,8.36415727 0,8.36415727 0,0" stroke="none" fill="#FFFFFF"></polygon></g></g><g transform="translate(104.81022566921729 8.152650139609449)"><g clip-path="url(#i37)"><polygon points="1.35875035e-15,4.62870124e-21 7.41290608,4.62870124e-21 7.41290608,7.84855409 1.35875035e-15,7.84855409 1.35875035e-15,4.62870124e-21" stroke="none" fill="#FFFFFF"></polygon></g></g><g transform="translate(90.10625695896306 2.0692755509114384)"><g clip-path="url(#i38)"><polygon points="3.54947172e-15,-7.06951649e-20 6.38143552,-7.06951649e-20 6.38143552,7.66863589 3.54947172e-15,7.66863589 3.54947172e-15,-7.06951649e-20" stroke="none" fill="#FFFFFF"></polygon></g></g><g transform="translate(80.37026710355815 0.30405375556954395)"><g clip-path="url(#i39)"><polygon points="0,0 6.01629003,0 6.01629003,7.43050762 0,7.43050762 0,0" stroke="none" fill="#FFFFFF"></polygon></g></g><g transform="translate(61.92637393219496 0.0)"><g clip-path="url(#i40)"><polygon points="0,0 9.6099821,0 9.6099821,7.82757547 0,7.82757547 0,0" stroke="none" fill="#FFFFFF"></polygon></g></g><g transform="translate(55.13028889178554 1.907904534651248)"><g clip-path="url(#i41)"><polygon points="0,0 3.0053483,0 3.0053483,7.1185459 0,7.1185459 0,0" stroke="none" fill="#FFFFFF"></polygon></g></g><g transform="translate(44.56105360511259 3.8170977410817244)"><g clip-path="url(#i42)"><polygon points="0,0 8.02283681,0 8.02283681,8.64801644 0,8.64801644 0,0" stroke="none" fill="#FFFFFF"></polygon></g></g><g transform="translate(36.262562071812965 8.870011757930136)"><g clip-path="url(#i43)"><polygon points="1.67236487e-15,-5.46968909e-17 6.39668016,-5.46968909e-17 6.39668016,7.11030341 1.67236487e-15,7.11030341 1.67236487e-15,-5.46968909e-17" stroke="none" fill="#FFFFFF"></polygon></g></g><g transform="translate(29.037716151455417 14.352581753011386)"><g clip-path="url(#i44)"><polygon points="0,0 6.89879733,0 6.89879733,7.63346711 0,7.63346711 0,0" stroke="none" fill="#FFFFFF"></polygon></g></g><g transform="translate(20.460479523119318 20.560484990031142)"><g clip-path="url(#i45)"><polygon points="9.06430966e-16,3.97222183e-18 7.22683922,3.97222183e-18 7.22683922,7.23149323 9.06430966e-16,7.23149323 9.06430966e-16,3.97222183e-18" stroke="none" fill="#FFFFFF"></polygon></g></g><g transform="translate(12.35574133494657 27.981864583327425)"><g clip-path="url(#i46)"><polygon points="0,0 9.15172079,0 9.15172079,8.93493668 0,8.93493668 0,0" stroke="none" fill="#FFFFFF"></polygon></g></g><g transform="translate(4.2983342910834486 42.313591979994655)"><g clip-path="url(#i47)"><polygon points="0,0 8.04048117,0 8.04048117,6.51322556 0,6.51322556 0,0" stroke="none" fill="#FFFFFF"></polygon></g></g><g transform="translate(2.381427349744286 53.00103173209601)"><g clip-path="url(#i48)"><polygon points="0,0 7.09182339,0 7.09182339,3.31219232 0,3.31219232 0,0" stroke="none" fill="#FFFFFF"></polygon></g></g></g><g transform="translate(150.0 72.0)"><g clip-path="url(#i49)"><polygon points="0,0 2,0 2,2 0,2 0,0" stroke="none" fill="#FFFFFF"></polygon></g></g><g transform="translate(8.0 72.0)"><g clip-path="url(#i49)"><polygon points="0,0 2,0 2,2 0,2 0,0" stroke="none" fill="#FFFFFF"></polygon></g></g></g></svg>